<?xml version="1.0" ?><!DOCTYPE svg  PUBLIC '-//W3C//DTD SVG 1.1//EN'  'http://www.w3.org/Graphics/SVG/1.1/DTD/svg11.dtd'><svg enable-background="new 0 0 128 128" id="Слой_1" version="1.1" viewBox="0 0 128 128" xml:space="preserve" xmlns="http://www.w3.org/2000/svg" xmlns:xlink="http://www.w3.org/1999/xlink"><g><g><path d="M109,105.2H19c-8.3,0-15-6.7-15-15V37.8c0-8.3,6.7-15,15-15h90c8.3,0,15,6.7,15,15v52.5    C124,98.5,117.3,105.2,109,105.2z" fill="#FFFFFF"/></g><g><rect fill="#FFFFFF" height="13.5" width="120" x="4" y="51.2"/></g><g><polyline fill="#938993" points="124,51.2 124,37.8 4,37.8 4,51.2 124,51.2   "/></g><g><path d="M109,106.5H19c-9,0-16.2-7.3-16.2-16.2V37.8c0-9,7.3-16.2,16.2-16.2h90c9,0,16.2,7.3,16.2,16.2v52.5    C125.2,99.2,118,106.5,109,106.5z M19,24c-7.6,0-13.8,6.2-13.8,13.8v52.5c0,7.6,6.2,13.8,13.8,13.8h90c7.6,0,13.8-6.2,13.8-13.8    V37.8c0-7.6-6.2-13.8-13.8-13.8H19z" fill="#62355C"/></g><g><path d="M124,66H4c-0.7,0-1.2-0.6-1.2-1.2s0.6-1.2,1.2-1.2h120c0.7,0,1.2,0.6,1.2,1.2S124.7,66,124,66z" fill="#62355C"/></g><g><path d="M67,59.2H11.5c-0.7,0-1.2-0.6-1.2-1.2s0.6-1.2,1.2-1.2H67c0.7,0,1.2,0.6,1.2,1.2S67.7,59.2,67,59.2z" fill="#62355C"/></g><g><path d="M98.5,59.2h-15c-0.7,0-1.2-0.6-1.2-1.2s0.6-1.2,1.2-1.2h15c0.7,0,1.2,0.6,1.2,1.2S99.2,59.2,98.5,59.2z" fill="#62355C"/></g><g><path d="M58,78H22c-0.7,0-1.2-0.6-1.2-1.2s0.6-1.2,1.2-1.2h36c0.7,0,1.2,0.6,1.2,1.2S58.7,78,58,78z" fill="#62355C"/></g><g><path d="M58,85.5H22c-0.7,0-1.2-0.6-1.2-1.2S21.3,83,22,83h36c0.7,0,1.2,0.6,1.2,1.2S58.7,85.5,58,85.5z" fill="#62355C"/></g><g><path d="M58,93H22c-0.7,0-1.2-0.6-1.2-1.2s0.6-1.2,1.2-1.2h36c0.7,0,1.2,0.6,1.2,1.2S58.7,93,58,93z" fill="#62355C"/></g><g><path d="M124,52.5H4c-0.7,0-1.2-0.6-1.2-1.2S3.3,50,4,50h120c0.7,0,1.2,0.6,1.2,1.2S124.7,52.5,124,52.5z" fill="#62355C"/></g><g><path d="M124,52.5H4c-0.7,0-1.2-0.6-1.2-1.2S3.3,50,4,50h120c0.7,0,1.2,0.6,1.2,1.2S124.7,52.5,124,52.5z" fill="#62355C"/></g><g><path d="M124,39H4c-0.7,0-1.2-0.6-1.2-1.2s0.6-1.2,1.2-1.2h120c0.7,0,1.2,0.6,1.2,1.2S124.7,39,124,39z" fill="#62355C"/></g><g><path d="    M124,51.2" fill="none" stroke="#373636" stroke-linecap="round" stroke-linejoin="round" stroke-miterlimit="10" stroke-width="2.5"/></g><g><circle cx="104.5" cy="84.2" fill="#FEE444" r="11.2"/></g><g><path d="M104.5,96.8c-6.9,0-12.5-5.6-12.5-12.5s5.6-12.5,12.5-12.5S117,77.4,117,84.2S111.4,96.8,104.5,96.8z     M104.5,74.2c-5.5,0-10,4.5-10,10s4.5,10,10,10s10-4.5,10-10S110,74.2,104.5,74.2z" fill="#62355C"/></g><g><circle cx="88" cy="84.2" fill="#EC7BB0" r="11.2"/></g><g><path d="M88,96.8c-6.9,0-12.5-5.6-12.5-12.5S81.1,71.8,88,71.8s12.5,5.6,12.5,12.5S94.9,96.8,88,96.8z M88,74.2    c-5.5,0-10,4.5-10,10s4.5,10,10,10s10-4.5,10-10S93.5,74.2,88,74.2z" fill="#62355C"/></g></g></svg>